<svg width="760" height="180" viewBox="0 0 760 180" fill="none" xmlns="http://www.w3.org/2000/svg" role="img" aria-labelledby="title desc">
  <title id="title">PromptLens workflow</title>
  <desc id="desc">Right-click image or screenshot selection, local preprocessing, user Vision API, and structured prompt card result.</desc>
  <defs>
    <filter id="shadow" x="-20%" y="-30%" width="140%" height="160%">
      <feDropShadow dx="0" dy="10" stdDeviation="12" flood-color="#27231f" flood-opacity="0.08"/>
    </filter>
  </defs>
  <rect width="760" height="180" rx="24" fill="#fbfaf7"/>
  <g filter="url(#shadow)">
    <rect x="28" y="48" width="148" height="84" rx="18" fill="#ffffff" stroke="#e4e1da"/>
    <text x="102" y="83" text-anchor="middle" fill="#1f1f1c" font-family="-apple-system,BlinkMacSystemFont,Segoe UI,sans-serif" font-size="15" font-weight="750">Input</text>
    <text x="102" y="107" text-anchor="middle" fill="#6e6a62" font-family="-apple-system,BlinkMacSystemFont,Segoe UI,sans-serif" font-size="12">Image / Screenshot</text>
  </g>
  <g filter="url(#shadow)">
    <rect x="216" y="48" width="148" height="84" rx="18" fill="#ffffff" stroke="#e4e1da"/>
    <text x="290" y="83" text-anchor="middle" fill="#1f1f1c" font-family="-apple-system,BlinkMacSystemFont,Segoe UI,sans-serif" font-size="15" font-weight="750">Preprocess</text>
    <text x="290" y="107" text-anchor="middle" fill="#6e6a62" font-family="-apple-system,BlinkMacSystemFont,Segoe UI,sans-serif" font-size="12">Validate · Crop · JPEG</text>
  </g>
  <g filter="url(#shadow)">
    <rect x="404" y="48" width="148" height="84" rx="18" fill="#ffffff" stroke="#e4e1da"/>
    <text x="478" y="83" text-anchor="middle" fill="#1f1f1c" font-family="-apple-system,BlinkMacSystemFont,Segoe UI,sans-serif" font-size="15" font-weight="750">Vision API</text>
    <text x="478" y="107" text-anchor="middle" fill="#6e6a62" font-family="-apple-system,BlinkMacSystemFont,Segoe UI,sans-serif" font-size="12">Your endpoint</text>
  </g>
  <g filter="url(#shadow)">
    <rect x="592" y="48" width="140" height="84" rx="18" fill="#ffffff" stroke="#e4e1da"/>
    <text x="662" y="83" text-anchor="middle" fill="#1f1f1c" font-family="-apple-system,BlinkMacSystemFont,Segoe UI,sans-serif" font-size="15" font-weight="750">Prompt Card</text>
    <text x="662" y="107" text-anchor="middle" fill="#6e6a62" font-family="-apple-system,BlinkMacSystemFont,Segoe UI,sans-serif" font-size="12">Copy · JSON · Markdown</text>
  </g>
  <path d="M184 90h24" stroke="#6366f1" stroke-width="3" stroke-linecap="round"/>
  <path d="M208 90l-9-6v12l9-6z" fill="#6366f1"/>
  <path d="M372 90h24" stroke="#6366f1" stroke-width="3" stroke-linecap="round"/>
  <path d="M396 90l-9-6v12l9-6z" fill="#6366f1"/>
  <path d="M560 90h24" stroke="#6366f1" stroke-width="3" stroke-linecap="round"/>
  <path d="M584 90l-9-6v12l9-6z" fill="#6366f1"/>
</svg>
